<svg width="56" height="68" viewBox="0 0 56 68" fill="none" xmlns="http://www.w3.org/2000/svg">
<path d="M21.0777 20.9743C21.181 20.9743 21.2843 20.871 21.3876 20.7676C21.3876 20.561 21.2843 20.4577 21.181 20.4577C20.6644 20.3544 20.0444 20.251 19.4245 20.0444C19.4245 20.251 19.3212 20.4577 19.3212 20.6643L21.0777 20.9743ZM28.9301 13.8451C29.1367 13.8451 29.24 13.6385 29.24 13.5352L29.0334 11.6754C28.9301 11.6754 28.8267 11.6754 28.7234 11.6754C28.6201 11.6754 28.5168 11.6754 28.4134 11.6754L28.6201 13.4318C28.6201 13.7418 28.8267 13.8451 28.9301 13.8451ZM37.8157 19.0112C37.919 19.1145 38.0223 19.2178 38.1256 19.2178H38.2289L39.8821 18.4946C39.7788 18.2879 39.6754 18.0813 39.6754 17.978L38.0223 18.5979C37.8157 18.7012 37.8157 18.8045 37.8157 19.0112ZM21.9042 26.1403C21.8009 26.037 21.6976 25.9337 21.4909 26.037C21.4909 26.037 20.6644 26.347 19.8378 26.7603C19.9411 26.9669 20.0444 27.1735 20.0444 27.2769L21.6976 26.5536C21.9042 26.4503 21.9042 26.2437 21.9042 26.1403ZM34.1994 14.9817H34.4061L34.6127 14.8783L35.5426 13.3285C35.336 13.2252 35.2326 13.1219 35.026 13.0186L34.0961 14.5684C33.9928 14.6717 34.0961 14.8783 34.1994 14.9817ZM23.8673 16.1182L24.074 16.0149C24.1773 15.9115 24.1773 15.7049 24.074 15.6016C23.764 15.1883 23.3507 14.775 22.8341 14.2584C22.7308 14.3617 22.5241 14.5684 22.4208 14.6717L23.6607 16.0149L23.8673 16.1182ZM36.1625 22.0075C36.1625 21.8008 36.1625 21.6975 36.0592 21.4909L40.6053 20.561C40.6053 20.3544 40.502 20.1477 40.502 19.9411L35.9559 20.871C35.7492 20.251 35.4393 19.6311 35.1293 19.1145L38.9522 16.3248C38.8489 16.1182 38.7456 16.0149 38.5389 15.8082L34.716 18.5979C34.6127 18.3913 34.4061 18.2879 34.3027 18.0813L37.4024 14.5684C37.1957 14.4651 37.0924 14.2584 36.8858 14.1551L33.6828 17.668C33.1662 17.2547 32.6496 16.9448 32.0297 16.7381L33.4762 12.192C33.2695 12.0887 33.0629 12.0887 32.8563 11.9853L31.4098 16.5315C31.2031 16.5315 30.9965 16.5315 30.7898 16.5315L31.3064 11.7787C31.0998 11.7787 30.8932 11.7787 30.6865 11.6754L30.1699 16.4282C29.8599 16.4282 29.55 16.4282 29.24 16.4282C28.9301 16.4282 28.6201 16.5315 28.3101 16.6348L27.8968 15.4983C27.5869 14.4651 26.967 12.6053 26.8636 12.192C26.657 12.2953 26.4503 12.2953 26.2437 12.3986C26.2437 12.502 26.347 12.6053 26.347 12.8119L27.6902 16.8414C27.4836 16.9448 27.2769 17.0481 27.0703 17.1514L26.4503 16.1182C25.9337 15.1883 24.9005 13.4318 24.6939 13.1219C24.4872 13.2252 24.2806 13.3285 24.1773 13.4318V13.5352L26.5537 17.5647C26.0371 17.8746 25.5205 18.3913 25.1072 18.8045L24.1773 18.0813C23.2474 17.4614 21.6976 16.3248 21.3876 16.0149C21.2843 16.2215 21.181 16.3248 20.9743 16.5315L24.6939 19.2178C24.5906 19.4245 24.4872 19.6311 24.3839 19.7344L20.1478 17.8746C20.0444 18.0813 19.9411 18.2879 19.8378 18.4946L24.074 20.3544C23.8673 20.9743 23.6607 21.5942 23.6607 22.3175H22.5241C21.4909 22.3175 19.5278 22.3175 19.0112 22.3175C19.0112 22.5241 19.0112 22.7307 19.0112 22.9374C19.1146 22.9374 19.2179 22.9374 19.4245 22.9374H22.4208C22.4208 22.9374 22.9374 22.9374 23.5574 22.9374C23.5574 23.144 23.5574 23.2473 23.5574 23.454V23.6606L19.1146 24.5905C19.1146 24.7972 19.2179 25.0038 19.2179 25.2104L23.6607 24.2806C23.8673 24.9005 24.074 25.5204 24.4872 26.1403L23.6607 26.7603C22.8341 27.3802 21.181 28.5167 20.871 28.8267C20.9743 29.0333 21.0777 29.1366 21.2843 29.3433L24.9005 26.7603C25.0039 26.9669 25.2105 27.0702 25.3138 27.2769L22.3175 30.5831C22.4208 30.6865 22.6275 30.8931 22.8341 30.9964L25.8304 27.6901C26.347 28.1034 26.967 28.5167 27.5869 28.7234L26.2437 32.9595C26.4503 33.0628 26.657 33.0628 26.8636 33.1662L28.2068 28.93C28.4134 29.0333 28.6201 29.0333 28.9301 29.0333C28.8267 29.5499 28.8267 29.9632 28.8267 29.9632L28.4134 33.3728C28.6201 33.3728 28.8267 33.3728 29.0334 33.4761L29.55 29.0333C29.8599 29.0333 30.2732 29.0333 30.5832 29.0333C30.8932 29.0333 31.3064 28.93 31.6164 28.8267L32.9596 33.0628C33.1662 32.9595 33.3729 32.9595 33.5795 32.8562L32.133 28.62C32.3396 28.5167 32.5463 28.4134 32.7529 28.3101L35.026 32.1329C35.2326 32.0296 35.4393 31.9263 35.5426 31.823L33.2695 28.0001C33.7861 27.5868 34.3027 27.1735 34.716 26.6569L38.3323 29.3433C38.4356 29.1366 38.5389 29.0333 38.7456 28.8267L35.2326 26.037C35.336 25.8304 35.4393 25.6237 35.5426 25.4171L39.6754 27.2769C39.7788 27.0702 39.8821 26.8636 39.9854 26.6569L35.8526 24.7972C36.0592 24.1772 36.1625 23.5573 36.2658 22.8341H40.812C40.812 22.6274 40.812 22.4208 40.812 22.2141H36.2658L36.1625 22.0075ZM30.4799 28.3101C27.3802 28.62 24.5906 26.347 24.2806 23.2473C23.9706 20.1477 26.2437 17.358 29.3433 17.0481C32.443 16.7381 35.2326 19.0112 35.5426 22.1108C35.8526 25.2104 33.5795 28.0001 30.4799 28.3101ZM38.4356 24.3839C38.4356 24.5905 38.5389 24.6938 38.6422 24.6938L40.3987 25.1071C40.3987 24.9005 40.502 24.6938 40.502 24.4872L38.7456 24.0739C38.6422 24.1772 38.4356 24.2806 38.4356 24.3839ZM35.7492 29.1366C35.6459 29.24 35.6459 29.4466 35.7492 29.5499L36.8858 30.8931C36.9891 30.7898 37.1957 30.5831 37.2991 30.4798L36.1625 29.1366C36.0592 29.0333 35.8526 29.0333 35.7492 29.1366ZM25.5205 30.1699C25.4171 30.0665 25.2105 30.1699 25.1072 30.2732L24.2806 31.823C24.4872 31.9263 24.5906 32.0296 24.7972 32.1329L25.6238 30.5831C25.7271 30.4798 25.6238 30.2732 25.5205 30.1699ZM30.7898 31.3064C30.5832 31.3064 30.4799 31.513 30.5832 31.6163L30.7898 33.3728C30.8932 33.3728 30.9965 33.3728 31.0998 33.3728C31.2031 33.3728 31.3064 33.3728 31.4098 33.3728L31.0998 31.6163C31.0998 31.4097 30.8932 31.3064 30.7898 31.3064Z" fill="#EC2227"/>
<path d="M26.4501 5.16605C26.6567 7.02583 27.38 8.67897 28.6198 9.91882C29.4464 8.47233 29.8597 6.61255 29.7564 4.75277C29.5497 2.89299 28.8265 1.23985 27.5866 0C26.6567 1.44649 26.2435 3.30627 26.4501 5.16605Z" fill="#EC2227"/>
<path d="M27.4832 0C26.6566 1.44649 26.2433 3.30627 26.3467 5.16605C26.5533 7.02583 27.2765 8.67897 28.5164 9.91882L27.4832 0Z" fill="#C9262D"/>
<path d="M30.0663 4.75277C29.8597 6.61255 30.273 8.369 31.2028 9.91882C32.3394 8.57565 33.1659 6.92251 33.3726 5.16605C33.5792 3.30627 33.1659 1.54982 32.2361 0C31.0995 1.23985 30.273 2.89299 30.0663 4.75277Z" fill="#EC2227"/>
<path d="M32.2361 0C31.0995 1.23985 30.273 2.89299 30.0663 4.75277C29.8597 6.61255 30.273 8.369 31.2028 9.91882L32.2361 0Z" fill="#C9262D"/>
<path d="M33.786 5.16597C33.166 6.92243 33.2694 8.78221 33.786 10.4353C35.2325 9.40214 36.2657 7.95564 36.8856 6.19918C37.5055 4.44272 37.4022 2.58295 36.8856 0.92981C35.4391 1.96302 34.4059 3.40951 33.786 5.16597Z" fill="#EC2227"/>
<path d="M36.8856 1.03314C35.4391 2.06635 34.4059 3.51285 33.786 5.2693C33.166 7.02576 33.2694 8.88554 33.786 10.5387L36.8856 1.03314Z" fill="#C9262D"/>
<path d="M37.2991 6.40601C36.3692 8.05915 36.0592 9.81561 36.1625 11.5721C37.7124 10.8488 39.1589 9.71229 40.0887 8.05915C41.0186 6.40601 41.3286 4.64955 41.2253 2.8931C39.6755 3.61634 38.229 4.8562 37.2991 6.40601Z" fill="#EC2227"/>
<path d="M41.2252 2.8931C39.6754 3.61634 38.2289 4.75288 37.299 6.40601C36.3691 8.05915 36.0591 9.81561 36.2658 11.5721L41.2252 2.8931Z" fill="#C9262D"/>
<path d="M40.5018 8.36904C39.2619 9.71221 38.5387 11.4687 38.332 13.1218C39.9852 12.8118 41.6383 11.882 42.8782 10.5388C44.118 9.19561 44.8413 7.43915 45.0479 5.78601C43.3948 6.09597 41.7416 6.92254 40.5018 8.36904Z" fill="#EC2227"/>
<path d="M45.0479 5.68268C43.3948 5.99264 41.7416 6.92253 40.5018 8.2657C39.2619 9.60888 38.5387 11.3653 38.332 13.0185L45.0479 5.68268Z" fill="#C9262D"/>
<path d="M43.2915 10.8486C41.7417 11.9852 40.7085 13.4317 40.1919 15.0848C41.9484 15.0848 43.7048 14.5682 45.1513 13.4317C46.7011 12.2951 47.7343 10.8486 48.2509 9.1955C46.4945 9.1955 44.738 9.7121 43.2915 10.8486Z" fill="#EC2227"/>
<path d="M48.2509 9.1955C46.4945 9.1955 44.738 9.7121 43.2915 10.8486C41.7417 11.9852 40.7085 13.4317 40.1919 15.0848L48.2509 9.1955Z" fill="#C9262D"/>
<path d="M45.1513 31.7197C43.6015 30.5832 41.9484 30.0666 40.1919 30.0666C40.7085 31.7197 41.7417 33.1662 43.2915 34.3028C44.8413 35.4393 46.4945 35.9559 48.2509 35.9559C47.7343 34.3028 46.7011 32.7529 45.1513 31.7197Z" fill="#A82D32"/>
<path d="M48.2509 35.9559C47.7343 34.3028 46.7011 32.8563 45.1513 31.7197C43.6015 30.5832 41.9484 30.0666 40.1919 30.0666L48.2509 35.9559Z" fill="#7E3237"/>
<path d="M42.8782 34.6126C41.6383 33.2694 40.0885 32.3395 38.332 32.0295C38.5387 33.786 39.1586 35.4391 40.5018 36.7823C41.7416 38.1255 43.2914 39.0554 45.0479 39.3653C44.8413 37.7122 44.118 36.0591 42.8782 34.6126Z" fill="#A82D32"/>
<path d="M45.0479 39.4687C44.8413 37.7122 44.118 36.0591 42.8782 34.7159C41.6383 33.3727 39.9852 32.4428 38.332 32.1329L45.0479 39.4687Z" fill="#7E3237"/>
<path d="M40.0885 37.0923C39.1586 35.4392 37.8154 34.3027 36.1623 33.5794C35.9556 35.3359 36.2656 37.0923 37.1955 38.7455C38.1254 40.3986 39.4685 41.5351 41.1217 42.2584C41.4316 40.5019 41.0184 38.7455 40.0885 37.0923Z" fill="#A82D32"/>
<path d="M41.225 42.2584C41.4317 40.5019 41.1217 38.7455 40.1918 37.0923C39.2619 35.4392 37.9188 34.3027 36.2656 33.5794L41.225 42.2584Z" fill="#7E3237"/>
<path d="M36.8856 38.9521C36.2657 37.1956 35.2325 35.7492 33.786 34.7159C33.2694 36.3691 33.166 38.2289 33.786 39.9853C34.4059 41.7418 35.4391 43.1883 36.8856 44.2215C37.4022 42.465 37.4022 40.7086 36.8856 38.9521Z" fill="#A82D32"/>
<path d="M36.8858 44.1181C37.4024 42.4649 37.5057 40.6052 36.8858 38.8487C36.2658 37.0923 35.2326 35.6458 33.7861 34.6125L36.8858 44.1181Z" fill="#7E3237"/>
<path d="M33.3727 39.9853C33.166 38.1255 32.4428 36.4723 31.2029 35.2325C30.3763 36.679 29.9631 38.5388 30.0664 40.3985C30.273 42.2583 30.9963 43.9115 32.2361 45.1513C33.0627 43.6015 33.476 41.845 33.3727 39.9853Z" fill="#A82D32"/>
<path d="M32.2363 45.1512C33.0629 43.7047 33.4762 41.8449 33.3729 40.0885C33.2695 38.332 32.443 36.5755 31.2031 35.3357L32.2363 45.1512Z" fill="#7E3237"/>
<path d="M29.6529 40.3984C29.8595 38.5386 29.4462 36.7822 28.5163 35.3357C27.3798 36.5755 26.5532 38.2287 26.3466 40.0885C26.1399 41.9482 26.5532 43.7047 27.4831 45.2545C28.6196 43.808 29.4462 42.1549 29.6529 40.3984Z" fill="#A82D32"/>
<path d="M27.4834 45.1513C28.6199 43.9115 29.4465 42.2583 29.6531 40.3985C29.8598 38.5388 29.4465 36.7823 28.5166 35.2325L27.4834 45.1513Z" fill="#7E3237"/>
<path d="M25.9334 39.8819C26.5534 38.1255 26.4501 36.2657 25.9334 34.6125C24.487 35.6458 23.4537 37.0923 22.8338 38.8487C22.2139 40.6052 22.3172 42.4649 22.8338 44.1181C24.2803 43.0849 25.3135 41.6384 25.9334 39.8819Z" fill="#A82D32"/>
<path d="M22.834 44.1181C24.2805 43.0849 25.3137 41.6384 25.9336 39.8819C26.5535 38.1255 26.4502 36.2657 25.9336 34.6125L22.834 44.1181Z" fill="#7E3237"/>
<path d="M22.4205 38.7455C23.3504 37.0923 23.6603 35.3359 23.4537 33.5794C21.9039 34.3027 20.4574 35.4392 19.5275 37.0923C18.5976 38.7455 18.2877 40.5019 18.4943 42.2584C20.0441 41.5351 21.4906 40.2953 22.4205 38.7455Z" fill="#A82D32"/>
<path d="M18.4946 42.2584C20.0444 41.5351 21.4909 40.3986 22.4208 38.7455C23.3507 37.0923 23.6607 35.3359 23.454 33.5794L18.4946 42.2584Z" fill="#7E3237"/>
<path d="M19.2175 36.7823C20.4574 35.4391 21.1806 33.6827 21.3873 32.0295C19.7341 32.3395 18.081 33.2694 16.8411 34.6126C15.6013 35.9557 14.878 37.7122 14.6714 39.3653C16.3245 39.0554 17.9777 38.2288 19.2175 36.7823Z" fill="#A82D32"/>
<path d="M14.6714 39.4687C16.3245 39.1587 17.9777 38.2288 19.2175 36.8856C20.4574 35.5425 21.1806 33.786 21.3873 32.1329L14.6714 39.4687Z" fill="#7E3237"/>
<path d="M16.4282 34.3028C17.978 33.1662 19.0112 31.7197 19.5278 30.0666C17.7713 30.0666 16.0149 30.5832 14.5684 31.7197C13.0186 32.8563 11.9854 34.3028 11.4688 35.9559C13.2252 35.8526 14.9817 35.336 16.4282 34.3028Z" fill="#C9262D"/>
<path d="M11.4688 35.8523C13.2252 35.8523 14.9817 35.3357 16.4282 34.1992C17.978 33.0626 19.0112 31.6161 19.5278 29.963L11.4688 35.8523Z" fill="#A82D32"/>
<path d="M14.3619 31.2029C16.015 30.4797 17.3582 29.2398 18.2881 27.69C16.6349 27.2767 14.7751 27.4834 13.122 28.2066C11.4689 28.9299 10.1257 30.1697 9.1958 31.7195C10.8489 32.1328 12.6054 32.0295 14.3619 31.2029Z" fill="#C9262D"/>
<path d="M9.09229 31.8227C10.7454 32.236 12.6052 32.0294 14.2583 31.3061C15.9115 30.5829 17.2546 29.343 18.1845 27.7932L9.09229 31.8227Z" fill="#A82D32"/>
<path d="M12.9151 27.7932C14.7749 27.3799 16.3247 26.45 17.4612 25.2102C15.9114 24.4869 14.0516 24.2803 12.2951 24.6935C10.4354 25.1068 8.88555 26.0367 7.74902 27.2766C9.19552 27.9998 11.0553 28.2065 12.9151 27.7932Z" fill="#C9262D"/>
<path d="M7.646 27.2766C9.19581 27.9999 11.0556 28.2065 12.812 27.7932C14.6718 27.3799 16.2216 26.4501 17.3582 25.2102L7.646 27.2766Z" fill="#A82D32"/>
<path d="M12.1918 24.177C14.0516 24.177 15.8081 23.5571 17.1512 22.5239C15.7047 21.4907 14.0516 20.8707 12.1918 20.8707C10.3321 20.8707 8.5756 21.4907 7.23242 22.5239C8.5756 23.5571 10.3321 24.177 12.1918 24.177Z" fill="#C9262D"/>
<path d="M7.12939 22.5239C8.47257 23.5571 10.229 24.1771 12.0888 24.1771C13.9486 24.1771 15.705 23.5571 17.0482 22.5239H7.12939Z" fill="#A82D32"/>
<path d="M12.1921 20.4576C14.0519 20.8709 15.8084 20.6643 17.3582 19.941C16.2216 18.7012 14.6718 17.668 12.812 17.358C10.9523 16.9447 9.19581 17.1514 7.646 17.8746C8.78253 19.1145 10.3323 20.0444 12.1921 20.4576Z" fill="#C9262D"/>
<path d="M7.646 17.8746C8.78253 19.1145 10.3323 20.1477 12.1921 20.4577C14.0519 20.8709 15.8084 20.6643 17.3582 19.9411L7.646 17.8746Z" fill="#A82D32"/>
<path d="M13.0185 16.8412C14.6716 17.5644 16.5314 17.7711 18.1845 17.3578C17.358 15.9113 16.0148 14.5681 14.2583 13.8449C12.6052 13.1216 10.7454 12.915 9.09229 13.3283C10.0222 14.8781 11.3653 16.1179 13.0185 16.8412Z" fill="#C9262D"/>
<path d="M9.09229 13.3283C9.91885 14.7748 11.262 16.1179 13.0185 16.8412C14.6716 17.5644 16.5314 17.7711 18.1845 17.3578L9.09229 13.3283Z" fill="#A82D32"/>
<path d="M14.5684 13.4317C16.1182 14.5682 17.7713 15.0848 19.5278 15.0848C19.0112 13.4317 17.978 11.9852 16.4282 10.8486C14.8783 9.7121 13.2252 9.1955 11.4688 9.1955C12.0887 10.8486 13.1219 12.3984 14.5684 13.4317Z" fill="#C9262D"/>
<path d="M11.4688 9.1955C11.9854 10.8486 13.0186 12.2951 14.5684 13.4317C16.1182 14.5682 17.7713 15.0848 19.5278 15.0848L11.4688 9.1955Z" fill="#A82D32"/>
<path d="M16.8411 10.4354C18.081 11.7786 19.6308 12.7085 21.3873 13.0185C21.1806 11.3653 20.4574 9.7122 19.2175 8.2657C17.9777 6.92253 16.4278 5.99264 14.6714 5.68268C14.878 7.43914 15.6013 9.09227 16.8411 10.4354Z" fill="#C9262D"/>
<path d="M14.6714 5.68268C14.878 7.43914 15.6013 9.09227 16.8411 10.4354C18.081 11.7786 19.6308 12.7085 21.3873 13.0185L14.6714 5.68268Z" fill="#A82D32"/>
<path d="M19.6311 8.05915C20.561 9.71229 21.9041 10.8488 23.5573 11.5721C23.7639 9.81561 23.4539 8.05915 22.5241 6.40601C21.5942 4.75288 20.251 3.61634 18.5979 2.8931C18.2879 4.64955 18.7012 6.40601 19.6311 8.05915Z" fill="#EC2227"/>
<path d="M18.4943 2.8931C18.2877 4.64955 18.5976 6.40601 19.5275 8.05915C20.4574 9.71229 21.8006 10.8488 23.4537 11.5721L18.4943 2.8931Z" fill="#C9262D"/>
<path d="M22.8337 6.19918C23.4537 7.95564 24.4869 9.40214 25.9334 10.4353C26.45 8.78221 26.5533 6.92243 25.9334 5.16597C25.3134 3.40951 24.2802 1.96302 22.8337 0.92981C22.3171 2.58295 22.3171 4.44272 22.8337 6.19918Z" fill="#EC2227"/>
<path d="M22.8338 1.03314C22.3172 2.68628 22.2139 4.54606 22.8338 6.30252C23.4537 8.05897 24.487 9.50547 25.9334 10.5387L22.8338 1.03314Z" fill="#C9262D"/>
<path d="M22.1107 62.7158C21.6974 61.9925 20.7675 61.4759 19.8376 61.4759C18.2878 61.4759 17.1513 62.6125 17.1513 64.2656C17.1513 65.9187 18.2878 66.9519 19.8376 66.9519C20.8708 66.9519 21.8007 66.4353 22.214 65.5054L23.0406 65.7121C22.524 66.9519 21.2841 67.6752 19.8376 67.6752C17.8745 67.6752 16.3247 66.2287 16.3247 64.1623C16.3247 62.0958 17.8745 60.6494 19.8376 60.6494C21.1808 60.6494 22.3173 61.3726 22.9373 62.4058L22.1107 62.7158Z" fill="white"/>
<path d="M26.037 60.8561H25.2104V67.5719H26.037V60.8561Z" fill="white"/>
<path d="M33.0626 60.8561V61.6826H30.7896V67.6753H29.963V61.6826H27.6899V60.8561H33.0626Z" fill="white"/>
<path d="M39.6752 60.8561L37.0922 64.2657V67.5719H36.2656V64.2657L33.6826 60.8561H34.6125L36.2656 63.0258C36.4723 63.2325 36.6789 63.5424 36.6789 63.5424C36.6789 63.5424 36.8856 63.2325 37.0922 63.0258L38.7453 60.8561H39.6752Z" fill="white"/>
<path d="M5.57934 52.2804C5.37269 51.2472 4.54613 50.7306 3.51292 50.7306C2.4797 50.7306 1.85978 51.2472 1.85978 51.9704C1.85978 52.797 2.99631 53.107 4.13284 53.5202C5.37269 53.9335 7.02583 54.5535 7.02583 56.2066C7.02583 57.7564 5.68266 58.8929 3.61624 58.8929C1.65314 58.8929 0.413284 57.7564 0 56.2066L1.44649 55.7933C1.65314 56.7232 2.37638 57.5498 3.71956 57.5498C4.85609 57.5498 5.57934 56.9298 5.57934 56.2066C5.57934 55.0701 4.23616 54.8634 2.89299 54.4501C1.85978 54.0368 0.413284 53.6236 0.413284 51.9704C0.413284 50.5239 1.75646 49.4907 3.61624 49.4907C5.26937 49.4907 6.61255 50.5239 6.92251 51.9704L5.57934 52.2804Z" fill="white"/>
<path d="M15.3949 57.3432V58.6864H9.09229V49.5941H15.2915V50.9373H10.5388V53.3137H14.3617V54.5535H10.5388V57.3432H15.3949Z" fill="white"/>
<path d="M22.6275 58.583L20.7677 55.3801C20.6644 55.3801 20.5611 55.3801 20.4577 55.3801H18.9079V58.583H17.4614V49.5941H20.4577C22.6275 49.5941 23.9707 50.7306 23.9707 52.4871C23.9707 53.727 23.3507 54.6568 22.2142 55.0701L24.3839 58.583H22.6275ZM20.6644 54.1402C21.9042 54.1402 22.5242 53.417 22.5242 52.4871C22.5242 51.5572 21.9042 50.9373 20.6644 50.9373H19.0112V54.1402H20.6644Z" fill="white"/>
<path d="M32.3397 57.3432V58.6864H26.0371V49.5941H32.2364V50.9373H27.4836V53.3137H31.3065V54.5535H27.4836V57.3432H32.3397Z" fill="white"/>
<path d="M42.0515 49.5941V58.583H40.7083L37.4021 54.1402C36.5755 53.0037 35.8523 51.9705 35.8523 51.9705C35.8523 51.9705 35.8523 53.2104 35.8523 54.7602V58.583H34.4058V49.5941H35.7489L39.0552 54.0369C39.6751 54.8635 40.605 56.2067 40.605 56.2067C40.605 56.2067 40.605 54.8635 40.605 53.417V49.5941H42.0515Z" fill="white"/>
<path d="M53.5203 56.62H49.2841L48.4575 58.6864H46.9077L50.7306 49.6974H52.0738L55.8966 58.6864H54.3468L53.5203 56.62ZM53.107 55.3801L51.9704 52.5904C51.7638 52.0738 51.5572 51.4539 51.5572 51.4539C51.5572 51.4539 51.3505 52.1772 51.1439 52.5904L50.0073 55.3801H53.107Z" fill="white"/>
<path d="M45.7712 49.5941H44.3247V51.5572H45.7712V49.5941Z" fill="white"/>
<path d="M45.7712 52.4872H44.3247V58.6864H45.7712V52.4872Z" fill="white"/>
<path d="M5.57934 52.2806C5.37269 51.2474 4.54613 50.7307 3.51292 50.7307C2.4797 50.7307 1.85978 51.2474 1.85978 51.9706C1.85978 52.7972 2.99631 53.1071 4.13284 53.5204C5.47602 53.9337 7.02583 54.5536 7.02583 56.2068C7.02583 57.7566 5.68266 58.8931 3.61624 58.8931C1.65314 58.8931 0.413284 57.7566 0 56.2068L1.44649 55.7935C1.65314 56.7234 2.37638 57.5499 3.71956 57.5499C4.85609 57.5499 5.57934 56.93 5.57934 56.2068C5.57934 55.0702 4.23616 54.8636 2.89299 54.4503C1.85978 54.037 0.413284 53.6237 0.413284 51.9706C0.413284 50.5241 1.75646 49.3876 3.61624 49.3876C5.26937 49.3876 6.61255 50.4208 6.92251 51.8673L5.57934 52.2806Z" fill="white"/>
<path d="M15.3949 57.3432V58.6864H9.09229V49.5941H15.2915V50.9373H10.5388V53.3137H14.3617V54.5535H10.5388V57.3432H15.3949Z" fill="white"/>
<path d="M22.6275 58.6864L20.7677 55.3801C20.6644 55.3801 20.5611 55.3801 20.4577 55.3801H18.9079V58.583H17.4614V49.5941H20.4577C22.6275 49.5941 23.9707 50.7306 23.9707 52.4871C23.9707 53.727 23.3507 54.6568 22.1109 55.0701L24.2806 58.583H22.6275V58.6864ZM20.6644 54.1402C21.9042 54.1402 22.5242 53.417 22.5242 52.4871C22.5242 51.5572 21.9042 50.9373 20.6644 50.9373H19.0112V54.1402H20.6644Z" fill="white"/>
<path d="M32.3397 57.3432V58.6864H26.0371V49.5941H32.3397V50.9373H27.4836V53.3137H31.3065V54.5535H27.4836V57.3432H32.3397Z" fill="white"/>
<path d="M42.0515 49.5941V58.6864H40.7083L37.4021 54.2436C36.5755 53.107 35.8523 51.9705 35.8523 51.9705C35.8523 51.9705 35.8523 53.2104 35.8523 54.7602V58.583H34.4058V49.5941H35.7489L39.0552 54.0369C39.6751 54.9668 40.605 56.2067 40.605 56.2067C40.605 56.2067 40.605 54.8635 40.605 53.417V49.5941H42.0515Z" fill="white"/>
<path d="M53.6238 56.6199H49.3876L48.561 58.6864H47.0112L50.8341 49.5941H52.1773L56.0002 58.6864H54.4503L53.6238 56.6199ZM53.1072 55.3801L51.9706 52.5904C51.764 52.0738 51.5574 51.4539 51.5574 51.4539C51.5574 51.4539 51.3507 52.1771 51.1441 52.5904L50.0075 55.3801H53.1072Z" fill="white"/>
<path d="M45.7712 49.5941H44.3247V51.5572H45.7712V49.5941Z" fill="white"/>
<path d="M45.7712 52.4872H44.3247V58.6864H45.7712V52.4872Z" fill="white"/>
</svg>
